# xmcd
#
# Track frame offsets:
#	150
#	12457
#	27076
#	37633
#	57944
#	71820
#	91662
#	102260
#	119874
#	133492
#	148316
#	158589
#
# Disc length: 2276 seconds
# Revision: 0
# Processed by: cddbd v1.5.2PL0 Copyright (c) Steve Scherf et al.
# Submitted via: dBpowerAMP V12.0
#
DISCID=a708e20c
DTITLE=Wayne Taylor -  It's About Time
DYEAR=2012
DGENRE=Country
TTITLE0=Long Gone
TTITLE1=Who Do You Think You're Fooling
TTITLE2=January Night
TTITLE3=Cedar Creek 
TTITLE4=You're Gone 
TTITLE5=Walked Away 
TTITLE6=Chips And Salsa 
TTITLE7=With You Still On My
TTITLE8=Bluest Eyes In Tennessee
TTITLE9=Strangers 
TTITLE10=Thirty Eight Special 
TTITLE11=Little Maggie
EXTD=
EXTT0=
EXTT1=
EXTT2=
EXTT3=
EXTT4=
EXTT5=
EXTT6=
EXTT7=
EXTT8=
EXTT9=
EXTT10=
EXTT11=
PLAYORDER=
